REM MD5 ec2ed94a38f193cad333c39511ec71b5
FILE "SuperLite 1500 Series - Suudoku 2 (Japan).bin" BINARY
  TRACK 01 MODE2/2352
    INDEX 01 00:00:00
  TRACK 02 AUDIO
    INDEX 00 00:10:07
    INDEX 01 00:12:07
  TRACK 03 AUDIO
    INDEX 00 02:19:29
    INDEX 01 02:21:29
  TRACK 04 AUDIO
    INDEX 00 05:27:35
    INDEX 01 05:29:35
  TRACK 05 AUDIO
    INDEX 00 13:35:48
    INDEX 01 13:37:48
  TRACK 06 AUDIO
    INDEX 00 21:44:73
    INDEX 01 21:46:73
REM LEADOUT 29:53:51
